:SAMPLES-PER-SECOND 30
:FULLY-SPECIFIED
:DEGREES
110
root  34.94652275 36.53329864 -14.75728403 9.342840195 -0.9273377657 3.212327719
lowerback  -8.185620308 1.33781004 0.7050427198
upperback  -3.996710062 1.348469973 -3.664979935
thorax  0.5582550168 0.4504759908 -4.075329781
lowerneck  -14.64760017 0.5433710217 1.920889974
upperneck  15.7748003 -1.052010059 5.457339764
head  7.294079781 -0.02283540368 1.338129997
lclavicle  0 -4.497500157e-015 -2.743230041e-014
lhumerus  -44.85900116 25.96500015 68.71549988
lradius  -0.01853986457 -6.507048965e-006 28.853899
lwrist  4.824992743e-007 -3.790274832e-007 -28.25119972
lhand  -4.401178415e-031 -36.64839935 -10.60620022
lfingers  90 7.125020027 -90
lthumb  94.68388691 -25.45208844 100.7937566
rclavicle  0 -4.497500157e-015 -2.743230041e-014
rhumerus  21.22030067 21.88120079 -63.41400146
rradius  -5.16745672e-007 2.214343908e-008 88.88680267
rwrist  -3.062178075e-005 0.01797077805 -179.6730804
rhand  -1.770669225e-031 4.35255003 -6.058350086
rfingers  -90 -7.125020027 -90
rthumb  -84.33202646 -9.803057305 -59.76133789
rfemur  -12.402174 15.26949787 13.37117958
rtibia  -0.9240591526 0.1661610603 20.74023056
rfoot  -0.2880672216 -19.93616104 -38.72967529
rtoes  4.139940128 19.58402002 -102.1854993
lfemur  -9.106414795 -17.47905731 -19.32391167
ltibia  2.393590927 0.4995873272 14.80410671
lfoot  0.6425041556 -26.3999176 35.29212952
ltoes  -8.484978277 -18.17802515 -115.5569266
111
root  34.94629747 36.5330193 -14.75459872 9.347910881 -0.849599421 3.215229511
lowerback  -8.186660767 1.352389932 0.7460116148
upperback  -4.004320145 1.363899946 -3.687779903
thorax  0.5535929799 0.4568670094 -4.121109962
lowerneck  -14.72280025 0.6134759784 2.030630112
upperneck  15.82209969 -0.984852016 5.439380169
head  7.321400166 0.01624898799 1.322059989
lclavicle  0 -4.497500157e-015 -2.743230041e-014
lhumerus  -44.84719849 25.98270035 68.68170166
lradius  -0.01919727959 -6.507048965e-006 28.7989006
lwrist  4.824992743e-007 -3.790274832e-007 -28.29730034
lhand  -4.401264094e-031 -36.64989853 -10.69419956
lfingers  90 7.125020027 -90
lthumb  94.70286272 -25.53851019 100.8032285
rclavicle  0 -4.497500157e-015 -2.743230041e-014
rhumerus  22.79360199 21.68090057 -62.99879837
rradius  -5.16745672e-007 2.214343908e-008 88.26750183
rwrist  -3.062178075e-005 0.01791105419 -179.6400909
rhand  -1.771065158e-031 4.517710209 -5.952439785
rfingers  -90 -7.125020027 -90
rthumb  -84.23601832 -9.903200934 -59.59040488
rfemur  -12.40069675 15.27239799 13.3846941
rtibia  -0.9315873981 0.1996217519 20.75082397
rfoot  -0.2891443074 -19.86415482 -38.76769638
rtoes  4.12918766 19.58620463 -102.1534222
lfemur  -9.103888512 -17.56087685 -19.32653427
ltibia  2.410423994 0.4978795648 14.79353237
lfoot  0.6417981386 -26.38815117 35.28177643
ltoes  -8.482834951 -18.17899878 -115.5500565
112
root  34.94884161 36.53252669 -14.75208613 9.348392487 -0.7738512754 3.198225737
lowerback  -8.204009056 1.393790126 0.7675725818
upperback  -4.005579948 1.417500019 -3.707489967
thorax  0.5669829845 0.4832020104 -4.149030209
lowerneck  -14.81040001 0.6358690262 2.020539999
upperneck  15.85910034 -0.9639840126 5.47510004
head  7.348810196 0.03149792179 1.338430047
lclavicle  0 -4.497500157e-015 -2.743230041e-014
lhumerus  -44.7947998 25.93530083 68.75240326
lradius  -0.01989042386 -6.507048965e-006 28.75919724
lwrist  4.824992743e-007 -3.790274832e-007 -28.3090992
lhand  -4.402459248e-031 -36.67079926 -10.71790028
lfingers  90 7.125020027 -90
lthumb  94.71760771 -25.56101271 100.8277603
rclavicle  0 -4.497500157e-015 -2.743230041e-014
rhumerus  24.17700005 21.49489975 -62.27199936
rradius  -5.16745672e-007 2.214343908e-008 87.95300293
rwrist  -3.062178075e-005 0.0178513322 -179.6360016
rhand  -0 4.259829998 -5.772789955
rfingers  -90 -7.125020027 -90
rthumb  -84.20963152 -10.04506132 -59.82698361
rfemur  -12.36608315 15.24143314 13.40715981
rtibia  -0.9360015988 0.2116661519 20.70668793
rfoot  -0.2698208392 -19.83674049 -38.78078079
rtoes  4.137385143 19.58453966 -102.1778769
lfemur  -9.151417732 -17.54093933 -19.28368378
ltibia  2.376636028 0.5149798393 14.86435032
lfoot  0.6333383918 -26.45868301 35.18824005
ltoes  -8.471400572 -18.18418778 -115.5134113
113
root  34.95162303 36.5328601 -14.74958855 9.377345085 -0.7054317594 3.215810061
lowerback  -8.176099777 1.456099987 0.8294098377
upperback  -4.001130104 1.49751997 -3.745130062
thorax  0.56497401 0.5226749778 -4.216730118
lowerneck  -14.85630035 0.621589005 2.098170042
upperneck  15.81070042 -0.9893209934 5.436339855
head  7.341310024 0.02151777595 1.310340047
lclavicle  0 -4.497500157e-015 -2.743230041e-014
lhumerus  -44.70780182 25.83259964 68.80940247
lradius  -0.02058916911 -6.507048965e-006 28.73830223
lwrist  4.824992743e-007 -3.790274832e-007 -28.3932991
lhand  -0 -36.64609909 -10.67959976
lfingers  90 7.125020027 -90
lthumb  94.69805158 -25.52427044 100.7978726
rclavicle  0 -4.497500157e-015 -2.743230041e-014
rhumerus  25.58090019 21.14389992 -61.90999985
rradius  -5.16745672e-007 2.214343908e-008 87.33679962
rwrist  -3.062178075e-005 0.01779161394 -179.4581604
rhand  -1.770169652e-031 4.134659767 -5.91203022
rfingers  -90 -7.125020027 -90
rthumb  -84.31228334 -9.918152404 -59.96177989
rfemur  -12.38542461 15.22770882 13.39666748
rtibia  -0.9359221458 0.2217256427 20.72076988
rfoot  -0.2837093771 -19.79977798 -38.82715225
rtoes  4.145581786 19.5828714 -102.2023311
lfemur  -9.179148674 -17.50210381 -19.29844475
ltibia  2.396023273 0.5261921883 14.84710503
lfoot  0.61937356 -26.46902275 35.08641434
ltoes  -8.464479844 -18.18732424 -115.4912365
114
root  34.95283052 36.53332868 -14.74712702 9.409788132 -0.6314811707 3.221357107
lowerback  -8.156669617 1.50733006 0.8769858479
upperback  -3.985790014 1.565260053 -3.773900032
thorax  0.5775529742 0.5570880175 -4.267960072
lowerneck  -14.91800022 0.6221020222 2.177589893
upperneck  15.77779961 -0.9930819869 5.382609844
head  7.341020107 0.02146688662 1.279600143
lclavicle  0 -4.497500157e-015 -2.743230041e-014
lhumerus  -44.64310074 25.80680084 68.84600067
lradius  -0.02129346877 -6.507048965e-006 28.71199989
lwrist  4.824992743e-007 -3.790274832e-007 -28.48550034
lhand  -4.400852762e-031 -36.6427002 -10.64449978
lfingers  90 7.125020027 -90
lthumb  94.68919206 -25.48996077 100.791116
rclavicle  0 -4.497500157e-015 -2.743230041e-014
rhumerus  27.01059914 20.91449928 -61.34009933
rradius  -5.16745672e-007 2.214343908e-008 86.79740143
rwrist  -3.062178075e-005 0.01773190126 -179.4450073
rhand  -0 4.397830009 -5.803209782
rfingers  -90 -7.125020027 -90
rthumb  -84.18997383 -10.02578989 -59.69453654
rfemur  -12.42018795 15.20900345 13.39338493
rtibia  -0.9339626431 0.2385945022 20.74153519
rfoot  -0.2938483059 -19.75493622 -38.85894394
rtoes  4.164633308 19.57898044 -102.2591779
lfemur  -9.252385139 -17.56143188 -19.27690315
ltibia  2.374845505 0.5210321546 14.89130878
lfoot  0.6077369452 -26.46993065 35.04389954
ltoes  -8.480561392 -18.18003123 -115.5427693
115
root  34.95324803 36.53319051 -14.74448076 9.428957939 -0.5485281944 3.219111919
lowerback  -8.173370361 1.529899836 0.972949326
upperback  -4.032969952 1.584740043 -3.754080057
thorax  0.5416160226 0.5637850165 -4.300209999
lowerneck  -14.75039959 0.6692849994 2.075459957
upperneck  15.74359989 -0.897751987 5.39718008
head  7.298480034 0.05924028158 1.310089946
lclavicle  0 -4.497500157e-015 -2.743230041e-014
lhumerus  -44.79959869 25.88699913 68.83560181
lradius  -0.02200329304 -6.507048965e-006 28.68230057
lwrist  4.824992743e-007 -3.790274832e-007 -28.55170059
lhand  -4.415756863e-031 -36.90190125 -10.64080048
lfingers  90 7.125020027 -90
lthumb  94.80967357 -25.47720897 101.0679183
rclavicle  0 -4.497500157e-015 -2.743230041e-014
rhumerus  28.32859802 20.83460045 -60.73120117
rradius  -5.16745672e-007 2.214343908e-008 86.26059723
rwrist  -3.062178075e-005 0.01767218858 -179.4019928
rhand  -1.770763393e-031 4.392399788 -5.688370228
rfingers  -90 -7.125020027 -90
rthumb  -84.13249605 -10.12464082 -59.68947687
rfemur  -12.41606331 15.16570759 13.39308739
rtibia  -0.9323228002 0.2533318698 20.72537231
rfoot  -0.3022345006 -19.72133255 -38.91347504
rtoes  4.156970481 19.5805477 -102.2363119
lfemur  -9.26335907 -17.62176514 -19.27302933
ltibia  2.384986401 0.5317643881 14.88446426
lfoot  0.5980092883 -26.48616219 35.0013504
ltoes  -8.470718292 -18.18449713 -115.511225
